<svg id="Layer_1" data-name="Layer 1" xmlns="http://www.w3.org/2000/svg" height="40" viewBox="0 0 163.13 70.88"><defs><style>.cls-1{fill:#fff;}</style></defs><g id="PnP_Core_SDK" data-name="PnP Core SDK"><path class="cls-1" d="M95.77,56.9h0a3.83,3.83,0,0,0,.25.44l.23.34,4.47,6.06h3.71l-5.55-7.25L104,49.82h-3.45l-4.25,5.8c-.1.13-.19.27-.29.41l-.21.35h0V49.82H92.65V63.74h3.12Z" transform="translate(-1.9 -1.48)"/><path class="cls-1" d="M84.58,63.24A7.8,7.8,0,0,0,87.2,61.8a6.4,6.4,0,0,0,1.68-2.26,7,7,0,0,0,.6-2.94q0-6.78-8.21-6.78H76.6V63.74h4.58A11,11,0,0,0,84.58,63.24ZM79.73,52.16h1.52a5.45,5.45,0,0,1,3.68,1.11,4.2,4.2,0,0,1,1.28,3.37,5.67,5.67,0,0,1-.34,2.06,3.84,3.84,0,0,1-1,1.5,4.32,4.32,0,0,1-1.58.91,6.72,6.72,0,0,1-2.09.3H79.73Z" transform="translate(-1.9 -1.48)"/><path class="cls-1" d="M67.19,57.71c.63.27,1.15.51,1.55.71a6.12,6.12,0,0,1,1,.56,2,2,0,0,1,.5.53,1.39,1.39,0,0,1,.14.63,1.35,1.35,0,0,1-.63,1.16,3.49,3.49,0,0,1-2,.43A7.06,7.06,0,0,1,64.65,61a6,6,0,0,1-.88-.56v2.8a3.7,3.7,0,0,0,.79.32,8.94,8.94,0,0,0,1,.25c.35.07.71.12,1.08.16a10,10,0,0,0,1.08.06,9.62,9.62,0,0,0,2.39-.28,5.51,5.51,0,0,0,1.78-.81A3.49,3.49,0,0,0,73,61.61a3.83,3.83,0,0,0,.37-1.73,4,4,0,0,0-.23-1.37,3.55,3.55,0,0,0-.71-1.15,5.25,5.25,0,0,0-1.18-1,12.9,12.9,0,0,0-1.67-.86c-.59-.25-1.07-.47-1.43-.65a5.18,5.18,0,0,1-.87-.53,1.43,1.43,0,0,1-.42-.49,1.25,1.25,0,0,1-.12-.56,1.22,1.22,0,0,1,.67-1.06,3.57,3.57,0,0,1,1.88-.41,7.27,7.27,0,0,1,1.8.22,5.64,5.64,0,0,1,1.6.68V50.1a7.14,7.14,0,0,0-1.47-.39,14.06,14.06,0,0,0-2-.13,9.27,9.27,0,0,0-2.16.25,5.5,5.5,0,0,0-1.74.73,3.71,3.71,0,0,0-1.18,1.22,3.34,3.34,0,0,0-.42,1.69,3.66,3.66,0,0,0,.83,2.43A7.05,7.05,0,0,0,67.19,57.71Z" transform="translate(-1.9 -1.48)"/><path class="cls-1" d="M59.63,18.93q0-3.4-4-3.41h-2v6.89h2Q59.63,22.41,59.63,18.93Z" transform="translate(-1.9 -1.48)"/><path class="cls-1" d="M21,18.93q0-3.4-4-3.41H15v6.89h2Q21,22.41,21,18.93Z" transform="translate(-1.9 -1.48)"/><path class="cls-1" d="M71.79,1.61h0L1.9,1.48V72.36H165V1.61Zm91,2.27v38h-91v-38ZM48.67,11.7h7.84q8.39,0,8.39,7a6.77,6.77,0,0,1-2.41,5.39,9.58,9.58,0,0,1-6.43,2.06H53.67v7.62h-5ZM29,18H33.9v2.5H34a5.6,5.6,0,0,1,5.09-2.88c3.51,0,5.26,2.16,5.26,6.5v9.67H39.45V25q0-3.66-2.64-3.66a2.62,2.62,0,0,0-2.09,1,3.71,3.71,0,0,0-.82,2.46v9H29ZM10,11.7h7.83q8.38,0,8.39,7a6.74,6.74,0,0,1-2.41,5.39,9.55,9.55,0,0,1-6.43,2.06H15v7.62H10ZM162.76,70.09H4.17V44.32H162.76Z" transform="translate(-1.9 -1.48)"/><polygon class="cls-1" points="151.85 28.89 145.41 28.89 145.41 25.37 150.92 25.37 150.92 21.84 145.41 21.84 145.41 18.44 151.41 18.44 151.41 14.91 140.23 14.91 140.23 32.4 151.85 32.4 151.85 28.89"/><path class="cls-1" d="M128.52,27.34h.18a1.57,1.57,0,0,1,.65.13,2,2,0,0,1,.58.39,4.09,4.09,0,0,1,.6.75c.21.32.44.7.7,1.16l2.33,4.11h6l-3.22-5.09A9.72,9.72,0,0,0,134.94,27a4.37,4.37,0,0,0-1.7-1v0a7.79,7.79,0,0,0,1.64-.7,5.1,5.1,0,0,0,1.28-1.05A4.5,4.5,0,0,0,137,22.8a4.38,4.38,0,0,0,.3-1.66c0-3.16-2.35-4.75-7-4.75h-6.92V33.88h5.18Zm0-7.68h.92a3.29,3.29,0,0,1,1.85.42,1.74,1.74,0,0,1,.61,1.55,2.3,2.3,0,0,1-.69,1.76,2.57,2.57,0,0,1-1.83.65h-.86Z" transform="translate(-1.9 -1.48)"/><path class="cls-1" d="M83.74,31.13q3.08,3.17,8.45,3.16a15.33,15.33,0,0,0,6.67-1.24v-4.8a10.93,10.93,0,0,1-5.63,1.5,6.73,6.73,0,0,1-5.13-2,7.52,7.52,0,0,1-1.9-5.39,7.65,7.65,0,0,1,2-5.6,7.05,7.05,0,0,1,5.3-2.06,10.22,10.22,0,0,1,5.34,1.39V11a16.89,16.89,0,0,0-5.76-.86,12.12,12.12,0,0,0-9,3.48,12.36,12.36,0,0,0-3.45,9.08A11.51,11.51,0,0,0,83.74,31.13Z" transform="translate(-1.9 -1.48)"/><path class="cls-1" d="M103.55,31.74a8.48,8.48,0,0,0,2.91,1.81,10.65,10.65,0,0,0,3.79.64,10.76,10.76,0,0,0,3.85-.66,8.73,8.73,0,0,0,3-1.87,8.38,8.38,0,0,0,1.91-2.9,10,10,0,0,0,.68-3.74,9.72,9.72,0,0,0-.66-3.65,8.12,8.12,0,0,0-1.86-2.81,8.24,8.24,0,0,0-2.87-1.82,10.52,10.52,0,0,0-3.72-.64,11,11,0,0,0-4,.68,8.66,8.66,0,0,0-3,1.89,8.29,8.29,0,0,0-1.92,2.93,10.19,10.19,0,0,0-.67,3.77,9.39,9.39,0,0,0,.66,3.58A8.18,8.18,0,0,0,103.55,31.74ZM106.69,23a5.22,5.22,0,0,1,.78-1.7,3.56,3.56,0,0,1,1.26-1.09,3.77,3.77,0,0,1,1.71-.38,3.2,3.2,0,0,1,2.83,1.44,7,7,0,0,1,1,4,9.16,9.16,0,0,1-.25,2.19,4.82,4.82,0,0,1-.76,1.65,3.44,3.44,0,0,1-1.24,1,3.7,3.7,0,0,1-1.67.36A3.41,3.41,0,0,1,107.47,29a5.06,5.06,0,0,1-.78-1.67,8.36,8.36,0,0,1-.27-2.21A8.18,8.18,0,0,1,106.69,23Z" transform="translate(-1.9 -1.48)"/></g></svg>