<svg xmlns="http://www.w3.org/2000/svg" width="163.13" height="70.88" viewBox="0 0 163.13 70.88"><g id="Layer_2" data-name="Layer 2"><g id="Blue-Logo"><g id="PnP_Core_SDK" data-name="PnP Core SDK"><path d="M93.87,55.42h0a3.28,3.28,0,0,0,.25.44,3.84,3.84,0,0,0,.23.34l4.47,6.06h3.71L97,55l5.09-6.67H98.66l-4.24,5.81c-.1.13-.19.26-.29.41l-.21.35h0V48.33H90.75V62.26h3.12Z" style="fill:#2e76bc"/><path d="M82.68,61.75a7.47,7.47,0,0,0,2.62-1.44A6.46,6.46,0,0,0,87,58.06a7,7,0,0,0,.6-2.94q0-6.78-8.21-6.79H74.7V62.26h4.57A10.71,10.71,0,0,0,82.68,61.75ZM77.82,50.68h1.53A5.45,5.45,0,0,1,83,51.79a4.18,4.18,0,0,1,1.28,3.37A5.7,5.7,0,0,1,84,57.22a4,4,0,0,1-1,1.5,4.16,4.16,0,0,1-1.58.9,6.71,6.71,0,0,1-2.09.31H77.82Z" style="fill:#2e76bc"/><path d="M65.29,56.22l1.55.71a6.07,6.07,0,0,1,1,.57,1.59,1.59,0,0,1,.49.53,1.28,1.28,0,0,1,.15.63,1.35,1.35,0,0,1-.63,1.16,3.49,3.49,0,0,1-2,.43,6.38,6.38,0,0,1-1-.09,7.67,7.67,0,0,1-1.05-.26,6.2,6.2,0,0,1-1.89-1v2.79a4.27,4.27,0,0,0,.79.33q.47.14,1,.24c.35.07.71.13,1.08.17s.73,0,1.07,0a9.67,9.67,0,0,0,2.4-.27A5.51,5.51,0,0,0,70,61.42a3.65,3.65,0,0,0,1.1-1.29,3.86,3.86,0,0,0,.37-1.73A4.08,4.08,0,0,0,71.22,57a3.62,3.62,0,0,0-.71-1.14,5.56,5.56,0,0,0-1.18-1,14.34,14.34,0,0,0-1.67-.85c-.59-.25-1.07-.47-1.43-.66a5.22,5.22,0,0,1-.87-.52,1.41,1.41,0,0,1-.42-.49,1.28,1.28,0,0,1-.12-.56,1.21,1.21,0,0,1,.67-1.07,3.67,3.67,0,0,1,1.88-.41,7.28,7.28,0,0,1,1.8.23,5.37,5.37,0,0,1,1.6.68V48.62a7.14,7.14,0,0,0-1.47-.39,12.7,12.7,0,0,0-2-.13,8.77,8.77,0,0,0-2.16.25,5.42,5.42,0,0,0-1.75.73,3.68,3.68,0,0,0-1.17,1.22A3.31,3.31,0,0,0,61.82,52a3.66,3.66,0,0,0,.83,2.43A7,7,0,0,0,65.29,56.22Z" style="fill:#2e76bc"/><path d="M57.73,17.45q0-3.4-4-3.41h-2v6.89h2Q57.73,20.93,57.73,17.45Z" style="fill:#2e76bc"/><path d="M19.08,17.45q0-3.4-4-3.41h-2v6.89h2Q19.09,20.93,19.08,17.45Z" style="fill:#2e76bc"/><path d="M69.89.13h0L0,0V70.88H163.13V.13Zm91,2.27v38h-91V2.4ZM46.77,10.22H54.6q8.4,0,8.4,7a6.77,6.77,0,0,1-2.41,5.39,9.58,9.58,0,0,1-6.43,2.06H51.77v7.61h-5ZM27.11,16.54H32V19h.07a5.6,5.6,0,0,1,5.09-2.88q5.27,0,5.26,6.51v9.66H37.55V23.55q0-3.68-2.64-3.67a2.65,2.65,0,0,0-2.09,1A3.73,3.73,0,0,0,32,23.32v9H27.11Zm-19-6.32H16q8.39,0,8.39,7a6.74,6.74,0,0,1-2.41,5.39,9.55,9.55,0,0,1-6.43,2.06H13.12v7.61h-5ZM160.86,68.61H2.27V42.84H160.86Z" style="fill:#2e76bc"/><polygon points="151.85 28.89 145.41 28.89 145.41 25.37 150.92 25.37 150.92 21.84 145.41 21.84 145.41 18.44 151.41 18.44 151.41 14.91 140.23 14.91 140.23 32.4 151.85 32.4 151.85 28.89" style="fill:#2e76bc"/><path d="M126.62,25.86h.18a1.75,1.75,0,0,1,.65.12,2,2,0,0,1,.58.4,3.78,3.78,0,0,1,.6.75c.21.31.44.7.7,1.15l2.33,4.12h6l-3.23-5.09A9.32,9.32,0,0,0,133,25.48a4.34,4.34,0,0,0-1.71-1v-.05a6.77,6.77,0,0,0,1.65-.7,5.25,5.25,0,0,0,1.28-1,4.5,4.5,0,0,0,.84-1.35,4.42,4.42,0,0,0,.3-1.66q0-4.76-7-4.75h-6.92V32.4h5.18Zm0-7.68h.92a3.29,3.29,0,0,1,1.85.42,1.73,1.73,0,0,1,.61,1.55,2.31,2.31,0,0,1-.69,1.76,2.57,2.57,0,0,1-1.83.65h-.86Z" style="fill:#2e76bc"/><path d="M81.84,29.65q3.07,3.17,8.45,3.16A15.33,15.33,0,0,0,97,31.57v-4.8a10.93,10.93,0,0,1-5.63,1.5,6.73,6.73,0,0,1-5.13-2,7.52,7.52,0,0,1-1.9-5.39,7.65,7.65,0,0,1,2-5.6,7.06,7.06,0,0,1,5.3-2.07A10.25,10.25,0,0,1,97,14.6V9.54a17,17,0,0,0-5.76-.86,12.12,12.12,0,0,0-9,3.48,12.34,12.34,0,0,0-3.45,9.08A11.53,11.53,0,0,0,81.84,29.65Z" style="fill:#2e76bc"/><path d="M101.65,30.25a8.5,8.5,0,0,0,2.91,1.82,11.47,11.47,0,0,0,7.64,0,8.68,8.68,0,0,0,3-1.87,8.34,8.34,0,0,0,1.91-2.89,10.05,10.05,0,0,0,.68-3.75,9.67,9.67,0,0,0-.66-3.64,8.16,8.16,0,0,0-1.86-2.82,8.31,8.31,0,0,0-2.87-1.81,10.32,10.32,0,0,0-3.73-.64,11,11,0,0,0-3.94.67,8.54,8.54,0,0,0-3,1.9,8.29,8.29,0,0,0-1.92,2.93,10.16,10.16,0,0,0-.68,3.77,9.38,9.38,0,0,0,.67,3.57A8.18,8.18,0,0,0,101.65,30.25Zm3.14-8.76a5.27,5.27,0,0,1,.78-1.69,3.46,3.46,0,0,1,1.26-1.09,3.65,3.65,0,0,1,1.71-.38,3.2,3.2,0,0,1,2.83,1.44,7,7,0,0,1,1,4,9,9,0,0,1-.25,2.18,4.66,4.66,0,0,1-.76,1.65,3.37,3.37,0,0,1-1.24,1.05,3.87,3.87,0,0,1-1.67.35,3.37,3.37,0,0,1-2.86-1.42,5,5,0,0,1-.78-1.68,9.06,9.06,0,0,1,0-4.39Z" style="fill:#2e76bc"/></g></g></g></svg>